<?xml version="1.0" encoding="utf-8"?>
<!-- Generator: Adobe Illustrator 24.2.1, SVG Export Plug-In . SVG Version: 6.00 Build 0)  -->
<svg version="1.1" id="레이어_1" xmlns="http://www.w3.org/2000/svg" xmlns:xlink="http://www.w3.org/1999/xlink" x="0px"
	 y="0px" viewBox="0 0 236.42 16.71" style="enable-background:new 0 0 236.42 16.71;" xml:space="preserve">
<style type="text/css">
	.st0{fill:#003685;}
</style>
<g>
	<path class="st0" d="M77.93,8.21c-0.91-0.78-2.17-1.21-3.8-1.36l-3.81-0.3c-0.8-0.06-1.42-0.24-1.86-0.52
		c-0.43-0.29-0.65-0.66-0.65-1.11c0-0.57,0.33-1.04,0.99-1.4c0.66-0.36,1.54-0.53,2.64-0.53c1.01,0,1.95,0.16,2.84,0.49
		c0.89,0.33,1.68,0.8,2.38,1.42l1.95-2.31c-0.94-0.81-2.02-1.42-3.21-1.83c-1.2-0.41-2.48-0.62-3.84-0.62
		c-1.38,0-2.59,0.21-3.63,0.62c-1.05,0.41-1.85,0.99-2.43,1.75c-0.57,0.75-0.86,1.62-0.86,2.6c0,1.21,0.45,2.2,1.35,2.97
		c0.9,0.77,2.15,1.21,3.76,1.34l3.81,0.3c0.82,0.06,1.45,0.25,1.89,0.57c0.44,0.32,0.66,0.73,0.66,1.22c0,0.68-0.36,1.23-1.08,1.64
		c-0.72,0.41-1.73,0.62-3.03,0.62c-1.19,0-2.32-0.2-3.38-0.61c-1.06-0.4-1.96-0.99-2.71-1.77l-2,2.31c1.01,0.96,2.19,1.69,3.56,2.19
		c1.37,0.5,2.82,0.75,4.36,0.75c1.52,0,2.84-0.23,3.96-0.68c1.12-0.45,1.99-1.08,2.59-1.89c0.6-0.81,0.9-1.74,0.9-2.79
		C79.29,10.02,78.83,9,77.93,8.21"/>
	<rect x="56.32" y="0.46" class="st0" width="3.16" height="15.84"/>
	<path class="st0" d="M20.99,11.23l2.97-5.45l2.97,5.45H20.99z M23.94,0l-9.1,16.3h3.39l1.3-2.37h8.87l1.3,2.37h3.48L24.08,0H23.94z
		"/>
	<g>
		<path class="st0" d="M11.47,7.59c-0.26,0.3-0.6,0.52-1.01,0.66c-0.41,0.15-0.96,0.22-1.64,0.22H3.16V3.31h5.66
			c0.68,0,1.23,0.07,1.64,0.22c0.41,0.15,0.75,0.37,1.01,0.66c0.39,0.47,0.58,1.03,0.58,1.7C12.05,6.56,11.86,7.13,11.47,7.59
			 M13.75,2.12c-1.07-1.1-2.66-1.65-4.78-1.65H0v15.84h3.16V11.3h5.81c2.11,0,3.7-0.54,4.78-1.63c0.99-1,1.49-2.25,1.49-3.77
			S14.74,3.11,13.75,2.12"/>
		<path class="st0" d="M39.15,8.01V3.31h5.74c1.02,0,1.76,0.25,2.21,0.75c0.4,0.4,0.6,0.94,0.6,1.61c0,0.67-0.2,1.2-0.6,1.61
			c-0.5,0.5-1.23,0.75-2.21,0.75H39.15z M49.51,13.15c-0.56-0.18-1.03-0.4-1.43-0.65c-0.4-0.26-0.87-0.6-1.41-1.04
			c-0.5-0.4-0.87-0.68-1.12-0.84c1.1-0.03,2.05-0.27,2.86-0.71c0.8-0.44,1.42-1.04,1.83-1.78c0.42-0.75,0.63-1.58,0.63-2.49
			c0-0.74-0.13-1.43-0.4-2.06c-0.26-0.63-0.64-1.18-1.14-1.64c-1.02-0.98-2.46-1.47-4.32-1.47h-9.04V16.3h3.16v-5.5h1.09
			c0.62,0,1.19,0.17,1.71,0.51c0.52,0.34,1.16,0.87,1.91,1.58c0.79,0.73,1.48,1.32,2.08,1.76c0.6,0.44,1.34,0.83,2.23,1.15
			c0.89,0.32,1.91,0.49,3.05,0.49h0.53v-2.89h-0.3C50.72,13.42,50.06,13.33,49.51,13.15"/>
	</g>
	<polygon class="st0" points="225.1,13.46 225.1,9.69 233.41,9.69 233.41,6.85 225.1,6.85 225.1,3.31 235.83,3.31 235.83,0.46 
		221.94,0.46 221.94,16.3 236.42,16.3 236.42,13.46 	"/>
	<polygon class="st0" points="204.23,3.31 210.08,3.31 210.08,16.31 213.24,16.31 213.24,3.31 219.09,3.31 219.09,0.47 204.23,0.47 
			"/>
	<polygon class="st0" points="186.87,3.31 192.72,3.31 192.72,16.31 195.88,16.31 195.88,3.31 201.73,3.31 201.73,0.47 186.87,0.47 
			"/>
	<g>
		<path class="st0" d="M162.19,9.32c0,0.87-0.2,1.64-0.58,2.31c-0.39,0.66-0.93,1.19-1.63,1.56c-0.7,0.37-1.49,0.56-2.39,0.56
			c-0.9,0-1.7-0.19-2.39-0.56c-0.7-0.37-1.24-0.89-1.63-1.56c-0.39-0.67-0.58-1.44-0.58-2.31V0.47h-3.16v8.85
			c0,1.43,0.33,2.7,0.97,3.81c0.65,1.11,1.56,1.98,2.74,2.59c1.18,0.62,2.52,0.92,4.04,0.92c1.52,0,2.86-0.31,4.04-0.92
			c1.18-0.61,2.09-1.47,2.74-2.59c0.65-1.11,0.97-2.38,0.97-3.81V0.47h-3.16V9.32z"/>
		<path class="st0" d="M103.27,12.72c-0.36,0.53-0.99,0.79-1.91,0.79h-6.83V9.6h6.83c0.88,0,1.51,0.25,1.88,0.75
			c0.25,0.34,0.37,0.74,0.37,1.19C103.62,12.01,103.5,12.41,103.27,12.72 M94.54,3.26h6.2c0.77,0,1.32,0.21,1.65,0.63
			c0.26,0.31,0.39,0.69,0.39,1.14c0,0.45-0.13,0.83-0.39,1.14c-0.37,0.42-0.92,0.63-1.65,0.63h-6.2V3.26z M104.17,7.83
			c1.15-0.73,1.72-1.78,1.72-3.14c0-1.03-0.34-1.93-1.02-2.7c-0.93-1.01-2.25-1.52-3.97-1.52h-9.5V16.3h10.01
			c2.01,0,3.5-0.61,4.46-1.84c0.62-0.79,0.93-1.75,0.93-2.89c0-0.87-0.23-1.63-0.68-2.27C105.66,8.66,105.01,8.17,104.17,7.83"/>
	</g>
	<path class="st0" d="M114.71,11.23l2.97-5.45l2.97,5.45H114.71z M117.66,0l-9.1,16.3h3.39l1.3-2.37h8.87l1.3,2.37h3.48L117.8,0
		H117.66z"/>
	<polygon class="st0" points="173.11,9.69 181.43,9.69 181.43,6.85 173.11,6.85 173.11,3.31 183.84,3.31 183.84,0.47 169.96,0.47 
		169.96,16.31 184.43,16.31 184.43,13.46 173.11,13.46 	"/>
	<path class="st0" d="M137.13,10.04h5.41c-0.17,1.02-0.86,2.13-1.84,2.8c-0.98,0.67-2.25,0.91-3.57,0.91
		c-1.08,0-2.06-0.23-2.92-0.68c-0.86-0.45-1.53-1.09-2.02-1.9c-0.48-0.81-0.73-1.74-0.73-2.78c0-1.04,0.25-1.97,0.73-2.78
		c0.49-0.82,1.16-1.45,2.02-1.9c0.86-0.45,1.83-0.68,2.92-0.68c1.01,0,1.96,0.19,2.88,0.57c0.91,0.38,1.69,0.92,2.32,1.62l2.23-2.07
		c-0.88-0.93-1.98-1.67-3.3-2.2c-1.32-0.53-2.7-0.8-4.13-0.8c-1.67,0-3.18,0.36-4.53,1.08c-1.35,0.72-2.41,1.71-3.18,2.96
		c-0.77,1.25-1.16,2.65-1.16,4.21c0,1.55,0.39,2.95,1.16,4.21c0.77,1.25,1.84,2.23,3.18,2.96c1.35,0.72,2.85,1.08,4.53,1.08
		c1.92,0,3.23-0.29,4.59-0.95c1.28-0.63,2.14-1.41,3.1-2.87c0.79-1.21,1.09-2.72,1.09-4.24V7.24h-8.78V10.04z"/>
</g>
</svg>
