<?xml version="1.0" encoding="utf-8"?>
<!-- Generator: Adobe Illustrator 24.2.0, SVG Export Plug-In . SVG Version: 6.00 Build 0)  -->
<svg version="1.1" id="레이어_1" xmlns="http://www.w3.org/2000/svg" xmlns:xlink="http://www.w3.org/1999/xlink" x="0px"
	 y="0px" viewBox="0 0 236.4 16.7" style="enable-background:new 0 0 236.4 16.7;" xml:space="preserve">
<style type="text/css">
	.st0{fill:#FFFFFF;}
</style>
<g>
	<path class="st0" d="M77.9,8.2C77,7.4,75.8,7,74.1,6.8l-3.8-0.3c-0.8-0.1-1.4-0.2-1.9-0.5c-0.4-0.3-0.7-0.7-0.7-1.1
		c0-0.6,0.3-1,1-1.4C69.5,3.2,70.3,3,71.4,3c1,0,1.9,0.2,2.8,0.5s1.7,0.8,2.4,1.4l1.9-2.3c-0.9-0.8-2-1.4-3.2-1.8
		c-1.2-0.4-2.5-0.6-3.8-0.6c-1.4,0-2.6,0.2-3.6,0.6c-1.1,0.4-1.8,1-2.4,1.8c-0.6,0.8-0.9,1.6-0.9,2.6c0,1.2,0.4,2.2,1.3,3
		s2.2,1.2,3.8,1.3l3.8,0.3c0.8,0.1,1.4,0.3,1.9,0.6s0.7,0.7,0.7,1.2c0,0.7-0.4,1.2-1.1,1.6c-0.7,0.4-1.7,0.6-3,0.6
		c-1.2,0-2.3-0.2-3.4-0.6c-1.1-0.4-2-1-2.7-1.8l-2,2.3c1,1,2.2,1.7,3.6,2.2c1.4,0.5,2.8,0.8,4.4,0.8c1.5,0,2.8-0.2,4-0.7
		c1.1-0.4,2-1.1,2.6-1.9s0.9-1.7,0.9-2.8C79.3,10,78.8,9,77.9,8.2"/>
	<rect x="56.3" y="0.5" class="st0" width="3.2" height="15.8"/>
	<path class="st0" d="M21,11.2l3-5.4l3,5.4H21z M23.9,0l-9.1,16.3h3.4l1.3-2.4h8.9l1.3,2.4h3.5L24.1,0H23.9z"/>
	<g>
		<path class="st0" d="M11.5,7.6c-0.3,0.3-0.6,0.5-1,0.7c-0.4,0.1-1,0.2-1.6,0.2H3.2V3.3h5.7c0.7,0,1.2,0.1,1.6,0.2
			c0.4,0.2,0.8,0.4,1,0.7c0.4,0.5,0.6,1,0.6,1.7S11.9,7.1,11.5,7.6 M13.8,2.1C12.7,1,11.1,0.5,9,0.5H0v15.8h3.2v-5H9
			c2.1,0,3.7-0.5,4.8-1.6c1-1,1.5-2.3,1.5-3.8S14.7,3.1,13.8,2.1"/>
		<path class="st0" d="M39.2,8V3.3h5.7c1,0,1.8,0.3,2.2,0.8c0.4,0.4,0.6,0.9,0.6,1.6s-0.2,1.2-0.6,1.6C46.6,7.8,45.9,8,44.9,8
			L39.2,8L39.2,8z M49.5,13.1c-0.6-0.2-1-0.4-1.4-0.6c-0.4-0.3-0.9-0.6-1.4-1c-0.5-0.4-0.9-0.7-1.1-0.8c1.1,0,2-0.3,2.9-0.7
			c0.8-0.4,1.4-1,1.8-1.8c0.4-0.8,0.6-1.6,0.6-2.5c0-0.7-0.1-1.4-0.4-2.1c-0.3-0.6-0.6-1.2-1.1-1.6c-1-1-2.5-1.5-4.3-1.5h-9v15.8
			h3.2v-5.5h1.1c0.6,0,1.2,0.2,1.7,0.5s1.2,0.9,1.9,1.6c0.8,0.7,1.5,1.3,2.1,1.8c0.6,0.4,1.3,0.8,2.2,1.1s1.9,0.5,3,0.5h0.5v-2.9
			h-0.3C50.7,13.4,50.1,13.3,49.5,13.1"/>
	</g>
	<polygon class="st0" points="225.1,13.5 225.1,9.7 233.4,9.7 233.4,6.8 225.1,6.8 225.1,3.3 235.8,3.3 235.8,0.5 221.9,0.5 
		221.9,16.3 236.4,16.3 236.4,13.5 	"/>
	<polygon class="st0" points="204.2,3.3 210.1,3.3 210.1,16.3 213.2,16.3 213.2,3.3 219.1,3.3 219.1,0.5 204.2,0.5 	"/>
	<polygon class="st0" points="186.9,3.3 192.7,3.3 192.7,16.3 195.9,16.3 195.9,3.3 201.7,3.3 201.7,0.5 186.9,0.5 	"/>
	<g>
		<path class="st0" d="M162.2,9.3c0,0.9-0.2,1.6-0.6,2.3c-0.4,0.7-0.9,1.2-1.6,1.6c-0.7,0.4-1.5,0.6-2.4,0.6s-1.7-0.2-2.4-0.6
			c-0.7-0.4-1.2-0.9-1.6-1.6c-0.4-0.7-0.6-1.4-0.6-2.3V0.5h-3.2v8.9c0,1.4,0.3,2.7,1,3.8c0.6,1.1,1.6,2,2.7,2.6
			c1.2,0.6,2.5,0.9,4,0.9c1.5,0,2.9-0.3,4-0.9c1.2-0.6,2.1-1.5,2.7-2.6c0.6-1.1,1-2.4,1-3.8V0.5h-3.2L162.2,9.3L162.2,9.3z"/>
		<path class="st0" d="M103.3,12.7c-0.4,0.5-1,0.8-1.9,0.8h-6.8V9.6h6.8c0.9,0,1.5,0.3,1.9,0.8c0.3,0.3,0.4,0.7,0.4,1.2
			C103.6,12,103.5,12.4,103.3,12.7 M94.5,3.3h6.2c0.8,0,1.3,0.2,1.7,0.6c0.3,0.3,0.4,0.7,0.4,1.1s-0.1,0.8-0.4,1.1
			c-0.4,0.4-0.9,0.6-1.7,0.6h-6.2V3.3z M104.2,7.8c1.2-0.7,1.7-1.8,1.7-3.1c0-1-0.3-1.9-1-2.7c-0.9-1-2.3-1.5-4-1.5h-9.5v15.8h10
			c2,0,3.5-0.6,4.5-1.8c0.6-0.8,0.9-1.8,0.9-2.9c0-0.9-0.2-1.6-0.7-2.3C105.7,8.7,105,8.2,104.2,7.8"/>
	</g>
	<path class="st0" d="M114.7,11.2l3-5.4l3,5.4H114.7z M117.7,0l-9.1,16.3h3.4l1.3-2.4h8.9l1.3,2.4h3.5L117.8,0H117.7z"/>
	<polygon class="st0" points="173.1,9.7 181.4,9.7 181.4,6.8 173.1,6.8 173.1,3.3 183.8,3.3 183.8,0.5 170,0.5 170,16.3 184.4,16.3 
		184.4,13.5 173.1,13.5 	"/>
	<path class="st0" d="M137.1,10h5.4c-0.2,1-0.9,2.1-1.8,2.8s-2.3,0.9-3.6,0.9c-1.1,0-2.1-0.2-2.9-0.7c-0.9-0.4-1.5-1.1-2-1.9
		c-0.5-0.8-0.7-1.7-0.7-2.8s0.3-2,0.7-2.8c0.5-0.8,1.2-1.4,2-1.9S136,3,137.1,3c1,0,2,0.2,2.9,0.6c0.9,0.4,1.7,0.9,2.3,1.6l2.2-2.1
		c-0.9-0.9-2-1.7-3.3-2.2s-2.7-0.8-4.1-0.8c-1.7,0-3.2,0.4-4.5,1.1s-2.4,1.7-3.2,3c-0.8,1.3-1.2,2.7-1.2,4.2c0,1.6,0.4,2.9,1.2,4.2
		c0.8,1.3,1.8,2.2,3.2,3c1.4,0.7,2.9,1.1,4.5,1.1c1.9,0,3.2-0.3,4.6-0.9c1.3-0.6,2.1-1.4,3.1-2.9c0.8-1.2,1.1-2.7,1.1-4.2V7.2h-8.8
		V10z"/>
</g>
</svg>
